<?xml version="1.0" standalone="no"?>
<!DOCTYPE svg PUBLIC "-//W3C//DTD SVG 20010904//EN"
 "http://www.w3.org/TR/2001/REC-SVG-20010904/DTD/svg10.dtd">
<svg version="1.0" xmlns="http://www.w3.org/2000/svg"
 width="1316.000000pt" height="1316.000000pt" viewBox="0 0 1316.000000 1316.000000"
 preserveAspectRatio="xMidYMid meet">
<metadata>
Created by potrace 1.11, written by Peter Selinger 2001-2013
</metadata>
<g transform="translate(0.000000,1316.000000) scale(0.100000,-0.100000)"
fill="#000000" stroke="none">
<path d="M7370 10007 c-80 -39 -151 -72 -325 -152 -87 -40 -194 -91 -354 -166
-67 -33 -125 -59 -126 -59 -4 0 -142 -65 -335 -156 l-95 -45 -67 -287 c-38
-158 -93 -390 -123 -517 -30 -126 -87 -365 -126 -530 -39 -165 -74 -304 -78
-308 -7 -7 -262 76 -350 114 -31 13 -34 8 -39 -54 -2 -29 -6 -54 -8 -56 -2 -2
-116 28 -254 68 l-251 73 -162 -89 -162 -88 -190 -42 c-104 -24 -320 -73 -480
-109 l-290 -67 -195 -254 -195 -253 -275 -164 c-151 -89 -385 -228 -520 -308
l-245 -146 -875 -5 -875 -6 -100 -29 c-55 -16 -121 -36 -147 -43 -56 -16 -58
-13 62 -95 186 -125 513 -347 660 -447 85 -58 238 -162 340 -231 102 -69 290
-196 417 -283 327 -222 953 -647 965 -654 9 -6 -4 -198 -18 -273 -2 -11 -6
-63 -10 -115 l-6 -97 160 1 c157 0 161 0 171 -22 6 -12 23 -28 38 -36 33 -17
500 -108 628 -122 28 -3 57 -8 65 -10 8 -2 65 -9 125 -15 61 -6 135 -13 165
-17 74 -8 603 -7 715 1 102 7 199 15 265 20 236 20 485 69 546 107 24 14 35
30 40 55 4 24 12 34 24 34 17 0 17 -4 5 -51 -15 -56 -32 -80 -82 -110 l-33
-21 5 -66 c10 -121 23 -189 44 -229 11 -22 18 -43 15 -46 -3 -2 5 -33 16 -68
74 -218 341 -412 634 -460 103 -16 299 -7 398 19 267 71 507 266 628 511 70
141 99 269 98 426 l-1 99 69 1 c95 2 106 -2 102 -33 -2 -21 -10 -28 -40 -35
-21 -5 -38 -13 -38 -18 0 -5 24 -21 53 -36 48 -26 61 -28 157 -27 98 1 116 4
270 53 91 29 213 62 272 74 l106 22 1721 0 c1637 0 1721 1 1727 17 3 10 9 18
14 18 5 0 15 12 23 27 7 16 145 240 307 498 161 259 373 601 472 760 99 160
190 306 203 325 12 19 56 89 97 155 41 66 143 230 227 364 122 197 149 247
139 256 -7 7 -204 131 -438 275 -234 145 -524 325 -645 400 -121 75 -411 255
-645 400 -234 144 -447 277 -475 295 -27 18 -108 68 -180 112 -71 44 -353 218
-625 388 -272 169 -542 337 -600 373 -58 35 -121 75 -140 87 -19 12 -244 152
-500 310 -256 159 -528 327 -605 375 -77 48 -201 124 -275 170 -74 46 -157 97
-185 115 -150 95 -313 195 -316 194 -2 0 -42 -19 -89 -42z"/>
<path d="M5175 3945 c-225 -29 -478 -53 -645 -63 -226 -12 -601 -7 -760 11
-225 26 -280 30 -280 22 0 -21 70 -125 120 -179 134 -142 370 -230 587 -219
153 8 310 62 417 142 53 40 76 68 131 154 11 18 -17 21 350 -47 105 -19 205
-37 223 -41 l33 -5 -7 37 c-13 79 -36 188 -40 195 -6 9 1 10 -129 -7z"/>
</g>
</svg>
